<mxfile host="app.diagrams.net" agent="Mozilla/5.0 (Windows NT 10.0; Win64; x64) AppleWebKit/537.36 (KHTML, like Gecko) Chrome/131.0.0.0 Safari/537.36 OPR/116.0.0.0" version="26.0.16">
  <diagram name="Page-1" id="AoDpQAomFt5scNcmHZFM">
    <mxGraphModel dx="2080" dy="895" grid="1" gridSize="10" guides="1" tooltips="1" connect="1" arrows="1" fold="1" page="1" pageScale="1" pageWidth="850" pageHeight="1100" math="0" shadow="0">
      <root>
        <mxCell id="0" />
        <mxCell id="1" parent="0" />
        <mxCell id="EQbF4Zxb9Vb39GO_AvJZ-3" value="" style="edgeStyle=orthogonalEdgeStyle;rounded=0;orthogonalLoop=1;jettySize=auto;html=1;" edge="1" parent="1" source="EQbF4Zxb9Vb39GO_AvJZ-1" target="EQbF4Zxb9Vb39GO_AvJZ-2">
          <mxGeometry relative="1" as="geometry" />
        </mxCell>
        <mxCell id="EQbF4Zxb9Vb39GO_AvJZ-1" value="MULAI" style="rounded=1;whiteSpace=wrap;html=1;" vertex="1" parent="1">
          <mxGeometry x="365" y="20" width="120" height="60" as="geometry" />
        </mxCell>
        <mxCell id="EQbF4Zxb9Vb39GO_AvJZ-5" value="" style="edgeStyle=orthogonalEdgeStyle;rounded=0;orthogonalLoop=1;jettySize=auto;html=1;" edge="1" parent="1" source="EQbF4Zxb9Vb39GO_AvJZ-2" target="EQbF4Zxb9Vb39GO_AvJZ-4">
          <mxGeometry relative="1" as="geometry" />
        </mxCell>
        <mxCell id="EQbF4Zxb9Vb39GO_AvJZ-2" value="INPUT n" style="shape=parallelogram;perimeter=parallelogramPerimeter;whiteSpace=wrap;html=1;fixedSize=1;" vertex="1" parent="1">
          <mxGeometry x="365" y="100" width="120" height="60" as="geometry" />
        </mxCell>
        <mxCell id="EQbF4Zxb9Vb39GO_AvJZ-7" value="" style="edgeStyle=orthogonalEdgeStyle;rounded=0;orthogonalLoop=1;jettySize=auto;html=1;" edge="1" parent="1" source="EQbF4Zxb9Vb39GO_AvJZ-4" target="EQbF4Zxb9Vb39GO_AvJZ-6">
          <mxGeometry relative="1" as="geometry" />
        </mxCell>
        <mxCell id="EQbF4Zxb9Vb39GO_AvJZ-4" value="bilangan = &quot;prima&quot;" style="shape=hexagon;perimeter=hexagonPerimeter2;whiteSpace=wrap;html=1;fixedSize=1;" vertex="1" parent="1">
          <mxGeometry x="365" y="190" width="120" height="80" as="geometry" />
        </mxCell>
        <mxCell id="EQbF4Zxb9Vb39GO_AvJZ-11" value="" style="edgeStyle=orthogonalEdgeStyle;rounded=0;orthogonalLoop=1;jettySize=auto;html=1;" edge="1" parent="1" source="EQbF4Zxb9Vb39GO_AvJZ-6" target="EQbF4Zxb9Vb39GO_AvJZ-10">
          <mxGeometry relative="1" as="geometry" />
        </mxCell>
        <mxCell id="EQbF4Zxb9Vb39GO_AvJZ-12" value="Ya" style="edgeLabel;html=1;align=center;verticalAlign=middle;resizable=0;points=[];" vertex="1" connectable="0" parent="EQbF4Zxb9Vb39GO_AvJZ-11">
          <mxGeometry x="-0.1342" relative="1" as="geometry">
            <mxPoint as="offset" />
          </mxGeometry>
        </mxCell>
        <mxCell id="EQbF4Zxb9Vb39GO_AvJZ-18" value="" style="edgeStyle=orthogonalEdgeStyle;rounded=0;orthogonalLoop=1;jettySize=auto;html=1;" edge="1" parent="1" source="EQbF4Zxb9Vb39GO_AvJZ-6" target="EQbF4Zxb9Vb39GO_AvJZ-17">
          <mxGeometry relative="1" as="geometry" />
        </mxCell>
        <mxCell id="EQbF4Zxb9Vb39GO_AvJZ-19" value="Tidak" style="edgeLabel;html=1;align=center;verticalAlign=middle;resizable=0;points=[];" vertex="1" connectable="0" parent="EQbF4Zxb9Vb39GO_AvJZ-18">
          <mxGeometry x="-0.368" y="2" relative="1" as="geometry">
            <mxPoint as="offset" />
          </mxGeometry>
        </mxCell>
        <mxCell id="EQbF4Zxb9Vb39GO_AvJZ-6" value="n &amp;lt;= 1 or (n &amp;gt; 2 AND n % 2 == 0)" style="rhombus;whiteSpace=wrap;html=1;" vertex="1" parent="1">
          <mxGeometry x="318" y="300" width="215" height="140" as="geometry" />
        </mxCell>
        <mxCell id="EQbF4Zxb9Vb39GO_AvJZ-43" style="edgeStyle=orthogonalEdgeStyle;rounded=0;orthogonalLoop=1;jettySize=auto;html=1;entryX=1;entryY=0.5;entryDx=0;entryDy=0;exitX=0.5;exitY=1;exitDx=0;exitDy=0;" edge="1" parent="1" source="EQbF4Zxb9Vb39GO_AvJZ-10" target="EQbF4Zxb9Vb39GO_AvJZ-39">
          <mxGeometry relative="1" as="geometry" />
        </mxCell>
        <mxCell id="EQbF4Zxb9Vb39GO_AvJZ-10" value="bilangan = &quot;bukan prima&quot;" style="whiteSpace=wrap;html=1;" vertex="1" parent="1">
          <mxGeometry x="580" y="340" width="155" height="60" as="geometry" />
        </mxCell>
        <mxCell id="EQbF4Zxb9Vb39GO_AvJZ-21" value="" style="edgeStyle=orthogonalEdgeStyle;rounded=0;orthogonalLoop=1;jettySize=auto;html=1;" edge="1" parent="1" source="EQbF4Zxb9Vb39GO_AvJZ-35" target="EQbF4Zxb9Vb39GO_AvJZ-20">
          <mxGeometry relative="1" as="geometry" />
        </mxCell>
        <mxCell id="EQbF4Zxb9Vb39GO_AvJZ-17" value="i = 3&lt;div&gt;limit = int(n ** 0.5) + 1&lt;/div&gt;" style="whiteSpace=wrap;html=1;" vertex="1" parent="1">
          <mxGeometry x="365.5" y="490" width="120" height="60" as="geometry" />
        </mxCell>
        <mxCell id="EQbF4Zxb9Vb39GO_AvJZ-23" value="" style="edgeStyle=orthogonalEdgeStyle;rounded=0;orthogonalLoop=1;jettySize=auto;html=1;" edge="1" parent="1" source="EQbF4Zxb9Vb39GO_AvJZ-20" target="EQbF4Zxb9Vb39GO_AvJZ-22">
          <mxGeometry relative="1" as="geometry" />
        </mxCell>
        <mxCell id="EQbF4Zxb9Vb39GO_AvJZ-26" value="Ya" style="edgeLabel;html=1;align=center;verticalAlign=middle;resizable=0;points=[];" vertex="1" connectable="0" parent="EQbF4Zxb9Vb39GO_AvJZ-23">
          <mxGeometry x="-0.0338" y="1" relative="1" as="geometry">
            <mxPoint as="offset" />
          </mxGeometry>
        </mxCell>
        <mxCell id="EQbF4Zxb9Vb39GO_AvJZ-38" value="" style="edgeStyle=orthogonalEdgeStyle;rounded=0;orthogonalLoop=1;jettySize=auto;html=1;" edge="1" parent="1" source="EQbF4Zxb9Vb39GO_AvJZ-20" target="EQbF4Zxb9Vb39GO_AvJZ-37">
          <mxGeometry relative="1" as="geometry" />
        </mxCell>
        <mxCell id="EQbF4Zxb9Vb39GO_AvJZ-41" value="TIDAK" style="edgeLabel;html=1;align=center;verticalAlign=middle;resizable=0;points=[];" vertex="1" connectable="0" parent="EQbF4Zxb9Vb39GO_AvJZ-38">
          <mxGeometry x="-0.1671" y="2" relative="1" as="geometry">
            <mxPoint as="offset" />
          </mxGeometry>
        </mxCell>
        <mxCell id="EQbF4Zxb9Vb39GO_AvJZ-20" value="i &amp;lt; limit" style="rhombus;whiteSpace=wrap;html=1;" vertex="1" parent="1">
          <mxGeometry x="362" y="680" width="127" height="50" as="geometry" />
        </mxCell>
        <mxCell id="EQbF4Zxb9Vb39GO_AvJZ-25" value="" style="edgeStyle=orthogonalEdgeStyle;rounded=0;orthogonalLoop=1;jettySize=auto;html=1;" edge="1" parent="1" source="EQbF4Zxb9Vb39GO_AvJZ-22" target="EQbF4Zxb9Vb39GO_AvJZ-24">
          <mxGeometry relative="1" as="geometry" />
        </mxCell>
        <mxCell id="EQbF4Zxb9Vb39GO_AvJZ-27" value="ya" style="edgeLabel;html=1;align=center;verticalAlign=middle;resizable=0;points=[];" vertex="1" connectable="0" parent="EQbF4Zxb9Vb39GO_AvJZ-25">
          <mxGeometry x="-0.264" y="3" relative="1" as="geometry">
            <mxPoint y="-3" as="offset" />
          </mxGeometry>
        </mxCell>
        <mxCell id="EQbF4Zxb9Vb39GO_AvJZ-29" value="" style="edgeStyle=orthogonalEdgeStyle;rounded=0;orthogonalLoop=1;jettySize=auto;html=1;" edge="1" parent="1" source="EQbF4Zxb9Vb39GO_AvJZ-22" target="EQbF4Zxb9Vb39GO_AvJZ-28">
          <mxGeometry relative="1" as="geometry" />
        </mxCell>
        <mxCell id="EQbF4Zxb9Vb39GO_AvJZ-30" value="tidak" style="edgeLabel;html=1;align=center;verticalAlign=middle;resizable=0;points=[];" vertex="1" connectable="0" parent="EQbF4Zxb9Vb39GO_AvJZ-29">
          <mxGeometry x="-0.136" y="2" relative="1" as="geometry">
            <mxPoint as="offset" />
          </mxGeometry>
        </mxCell>
        <mxCell id="EQbF4Zxb9Vb39GO_AvJZ-22" value="n % i == 0" style="rhombus;whiteSpace=wrap;html=1;" vertex="1" parent="1">
          <mxGeometry x="167" y="680" width="127" height="50" as="geometry" />
        </mxCell>
        <mxCell id="EQbF4Zxb9Vb39GO_AvJZ-24" value="bilangan = &quot;Bukan Prima&quot;" style="whiteSpace=wrap;html=1;" vertex="1" parent="1">
          <mxGeometry x="7" y="675" width="120" height="60" as="geometry" />
        </mxCell>
        <mxCell id="EQbF4Zxb9Vb39GO_AvJZ-36" style="edgeStyle=orthogonalEdgeStyle;rounded=0;orthogonalLoop=1;jettySize=auto;html=1;entryX=0;entryY=0.5;entryDx=0;entryDy=0;" edge="1" parent="1" source="EQbF4Zxb9Vb39GO_AvJZ-28" target="EQbF4Zxb9Vb39GO_AvJZ-35">
          <mxGeometry relative="1" as="geometry" />
        </mxCell>
        <mxCell id="EQbF4Zxb9Vb39GO_AvJZ-28" value="i += 2" style="whiteSpace=wrap;html=1;" vertex="1" parent="1">
          <mxGeometry x="167" y="580" width="120" height="60" as="geometry" />
        </mxCell>
        <mxCell id="EQbF4Zxb9Vb39GO_AvJZ-34" value="" style="edgeStyle=orthogonalEdgeStyle;rounded=0;orthogonalLoop=1;jettySize=auto;html=1;" edge="1" parent="1" source="EQbF4Zxb9Vb39GO_AvJZ-17" target="EQbF4Zxb9Vb39GO_AvJZ-35">
          <mxGeometry relative="1" as="geometry">
            <mxPoint x="426" y="550" as="sourcePoint" />
            <mxPoint x="426" y="680" as="targetPoint" />
          </mxGeometry>
        </mxCell>
        <mxCell id="EQbF4Zxb9Vb39GO_AvJZ-35" value="" style="ellipse;whiteSpace=wrap;html=1;aspect=fixed;" vertex="1" parent="1">
          <mxGeometry x="410.5" y="595" width="30" height="30" as="geometry" />
        </mxCell>
        <mxCell id="EQbF4Zxb9Vb39GO_AvJZ-40" value="" style="edgeStyle=orthogonalEdgeStyle;rounded=0;orthogonalLoop=1;jettySize=auto;html=1;" edge="1" parent="1" source="EQbF4Zxb9Vb39GO_AvJZ-37" target="EQbF4Zxb9Vb39GO_AvJZ-39">
          <mxGeometry relative="1" as="geometry" />
        </mxCell>
        <mxCell id="EQbF4Zxb9Vb39GO_AvJZ-37" value="OUTPUT bilangan" style="shape=parallelogram;perimeter=parallelogramPerimeter;whiteSpace=wrap;html=1;fixedSize=1;" vertex="1" parent="1">
          <mxGeometry x="358" y="780" width="135" height="60" as="geometry" />
        </mxCell>
        <mxCell id="EQbF4Zxb9Vb39GO_AvJZ-39" value="SELESAI" style="rounded=1;whiteSpace=wrap;html=1;" vertex="1" parent="1">
          <mxGeometry x="365.5" y="880" width="120" height="60" as="geometry" />
        </mxCell>
      </root>
    </mxGraphModel>
  </diagram>
</mxfile>
